<svg xmlns="http://www.w3.org/2000/svg" aria-hidden="true" style="position:absolute;width:0;height:0;overflow:hidden">
  <symbol id="icon-server" viewBox="0 0 24 24">
    <path d="M4 6.5A2.5 2.5 0 0 1 6.5 4h11A2.5 2.5 0 0 1 20 6.5v3A2.5 2.5 0 0 1 17.5 12h-11A2.5 2.5 0 0 1 4 9.5v-3Z" />
    <path d="M4 14.5A2.5 2.5 0 0 1 6.5 12h11a2.5 2.5 0 0 1 2.5 2.5v3a2.5 2.5 0 0 1-2.5 2.5h-11A2.5 2.5 0 0 1 4 17.5v-3Z" />
    <circle cx="8" cy="8" r="1" />
    <circle cx="8" cy="16" r="1" />
  </symbol>
  <symbol id="icon-code" viewBox="0 0 24 24">
    <path d="m8 8-4 4 4 4" />
    <path d="m16 8 4 4-4 4" />
    <path d="m14.5 5-5 14" />
  </symbol>
  <symbol id="icon-flow" viewBox="0 0 24 24">
    <circle cx="6" cy="6" r="2.5" />
    <circle cx="18" cy="6" r="2.5" />
    <circle cx="12" cy="18" r="2.5" />
    <path d="M8.3 7.1 10.7 9M15.7 7.1 13.3 9M12 10.5V15.5" />
  </symbol>
  <symbol id="icon-ai" viewBox="0 0 24 24">
    <path d="M12 4v3M12 17v3M4 12h3M17 12h3M6.8 6.8 9 9M15 15l2.2 2.2M17.2 6.8 15 9M9 15l-2.2 2.2" />
    <circle cx="12" cy="12" r="4" />
  </symbol>
  <symbol id="visual-grid" viewBox="0 0 160 120">
    <rect x="14" y="16" width="132" height="88" rx="12" />
    <path d="M40 16v88M68 16v88M96 16v88M124 16v88M14 44h132M14 72h132" />
    <circle cx="40" cy="44" r="6" />
    <circle cx="96" cy="72" r="6" />
    <circle cx="124" cy="44" r="6" />
  </symbol>
</svg>
